<svg width="32" height="32" viewBox="0 0 32 32" fill="none" xmlns="http://www.w3.org/2000/svg">
  <rect width="32" height="32" rx="8" fill="#1A73E8"/>
  <path d="M16 8C13.0545 8 10.5 10.5545 10.5 13.5C10.5 15.4569 11.4594 17.1582 12.9034 18.1055L16 24L19.0966 18.1055C20.5406 17.1582 21.5 15.4569 21.5 13.5C21.5 10.5545 18.9455 8 16 8ZM16 16C14.6193 16 13.5 14.8807 13.5 13.5C13.5 12.1193 14.6193 11 16 11C17.3807 11 18.5 12.1193 18.5 13.5C18.5 14.8807 17.3807 16 16 16Z" fill="white"/>
  <path d="M8 21C7.44772 21 7 21.4477 7 22V23C7 23.5523 7.44772 24 8 24H24C24.5523 24 25 23.5523 25 23V22C25 21.4477 24.5523 21 24 21H8Z" fill="white"/>
</svg>